<?xml version="1.0" encoding="UTF-8"?>
<svg version="1.1" xmlns="http://www.w3.org/2000/svg" width="500" height="500">
<path d="M0 0 C1.40625 1.49609375 1.40625 1.49609375 2.5 3.4375 C3.11294922 4.50484375 3.11294922 4.50484375 3.73828125 5.59375 C5.53620423 9.02260622 7.24363359 12.49048861 8.88671875 15.99609375 C9.83925965 18.15491479 9.83925965 18.15491479 12 19 C14.00282943 18.93443118 16.00340728 18.79600447 18 18.625 C19.27101562 18.52574219 20.54203125 18.42648438 21.8515625 18.32421875 C22.5312207 18.27056152 23.21087891 18.2169043 23.91113281 18.16162109 C43.68630527 16.63156451 63.41034179 16.24544519 83.1628418 18.28833008 C89.13423352 18.90079449 94.99766691 19.11633055 101 19 C101.27070313 18.13890625 101.54140625 17.2778125 101.8203125 16.390625 C102.98357212 13.04721654 104.33096232 9.93407771 105.875 6.75 C106.36742187 5.71359375 106.85984375 4.6771875 107.3671875 3.609375 C109.14553482 0.76742282 109.92324791 0.12208117 113 -1 C115.14038086 -0.86328125 115.14038086 -0.86328125 117.46484375 -0.3125 C118.33608887 -0.11172852 119.20733398 0.08904297 120.10498047 0.29589844 C121.03971191 0.52825195 121.97444336 0.76060547 122.9375 1 C123.91605957 1.23493164 124.89461914 1.46986328 125.90283203 1.71191406 C128.94110408 2.45305129 131.9712604 3.22088387 135 4 C135.89058105 4.22751953 136.78116211 4.45503906 137.69873047 4.68945312 C148.20354335 7.41859595 158.44404018 10.7407307 168.625 14.5 C169.59614746 14.85545898 170.56729492 15.21091797 171.56787109 15.57714844 C182.12904997 19.581301 191.07349637 23.12281199 196.8125 33.25 C197.26987549 34.00724365 197.72725098 34.7644873 198.19848633 35.54467773 C199.09316292 37.03134713 199.9771118 38.52454131 200.84863281 40.02490234 C202.23767727 42.40772035 203.71689068 44.72939819 205.1875 47.0625 C209.17838808 53.8356072 212.57055226 60.93186051 216 68 C216.37592285 68.77118164 216.7518457 69.54236328 217.13916016 70.33691406 C230.99327256 98.83713521 240.71032289 128.52029532 246.125 159.75 C246.28395752 160.65339111 246.44291504 161.55678223 246.60668945 162.48754883 C249.54123147 180.26942088 250.32881766 197.99115049 250.26074219 215.98925781 C250.24985692 219.4200952 250.26079558 222.85042669 250.2734375 226.28125 C250.27211834 228.48698031 250.26956102 230.69271031 250.265625 232.8984375 C250.26967346 233.9119931 250.27372192 234.92554871 250.27789307 235.96981812 C250.19660659 248.25433438 250.19660659 248.25433438 246.55249023 252.80932617 C245.99762939 253.23705322 245.44276855 253.66478027 244.87109375 254.10546875 C244.24702637 254.59192871 243.62295898 255.07838867 242.97998047 255.57958984 C239.7260941 257.91388219 236.44108705 260.16198813 233.0625 262.3125 C232.32523682 262.78469971 231.58797363 263.25689941 230.82836914 263.7434082 C218.3258919 271.6726214 205.31790277 278.55347937 192 285 C191.38302246 285.30147949 190.76604492 285.60295898 190.13037109 285.91357422 C180.56612645 290.57242631 170.80453835 294.57672561 160.83496094 298.28759766 C159.31273237 298.87858528 157.82574601 299.55941599 156.3515625 300.26171875 C153.144631 301.26854608 151.19240832 301.01537515 148 300 C146.1640625 297.953125 146.1640625 297.953125 144.625 295.25 C144.04492188 294.25871094 143.46484375 293.26742188 142.8671875 292.24609375 C142.25101562 291.17488281 141.63484375 290.10367187 141 289 C139.58587014 286.76922318 138.16919208 284.54005972 136.75 282.3125 C133.86737945 277.63103484 131.64363961 273.23910125 130 268 C133.39186571 264.00494168 137.01502144 262.46666594 141.75 260.5625 C147.54153887 258.14259503 152.80734854 255.56994788 158 252 C157.67 250.35 157.34 248.7 157 247 C151.84668025 245.65050892 148.5272557 246.56956262 143.8125 248.6875 C133.10261944 253.28396631 122.45422784 256.83892221 111.125 259.625 C109.35962891 260.07359375 109.35962891 260.07359375 107.55859375 260.53125 C90.38565688 264.80086907 73.47479197 266.19955094 55.8125 266.1875 C54.79527863 266.18709213 54.79527863 266.18709213 53.75750732 266.18667603 C43.03464715 266.16697589 32.59481555 265.65740679 22 264 C20.04707031 263.72542969 20.04707031 263.72542969 18.0546875 263.4453125 C-0.34542694 260.6823917 -18.669443 255.82859175 -35.41503906 247.66943359 C-39.96016599 245.41900902 -39.96016599 245.41900902 -44.88671875 245.50390625 C-47.15061105 247.10662483 -48.52053926 248.66400935 -50 251 C-41.40938283 255.74048062 -32.89705731 260.05649776 -23.73046875 263.578125 C-20.69314426 265.15979326 -20.04138981 265.81305302 -19 269 C-19.65576172 271.0078125 -19.65576172 271.0078125 -20.9296875 273.125 C-21.39165527 273.90891113 -21.85362305 274.69282227 -22.32958984 275.50048828 C-23.09456787 276.73774658 -23.09456787 276.73774658 -23.875 278 C-24.63804443 279.26626221 -24.63804443 279.26626221 -25.41650391 280.55810547 C-26.92764648 283.04942294 -28.46241845 285.52494353 -30 288 C-30.78153083 289.29410128 -31.56281227 290.58835322 -32.34375 291.8828125 C-37.27498169 299.75381692 -37.27498169 299.75381692 -40.22387695 300.75512695 C-43.75714262 301.06678516 -45.95982614 300.23682573 -49.26953125 298.97265625 C-50.4802832 298.5142334 -51.69103516 298.05581055 -52.93847656 297.58349609 C-54.23022684 297.0775407 -55.52156063 296.57052086 -56.8125 296.0625 C-58.13638589 295.55027399 -59.46027915 295.03806704 -60.78417969 294.52587891 C-69.48842733 291.12829365 -77.95755569 287.45000658 -86.17089844 282.98583984 C-88.13431017 281.92761019 -90.11521956 280.90902138 -92.1015625 279.89453125 C-102.71692071 274.43879038 -112.95532941 268.44439748 -123 262 C-123.69947754 261.55446777 -124.39895508 261.10893555 -125.11962891 260.64990234 C-127.0975913 259.37463093 -129.05163679 258.06994135 -131 256.75 C-131.58160889 256.37431885 -132.16321777 255.9986377 -132.76245117 255.61157227 C-137.02410378 252.63260935 -138.06650281 250.02815532 -139 245 C-139.75181988 239.70864963 -140.13712348 234.61294954 -140.16796875 229.2578125 C-140.17220352 228.54071106 -140.17643829 227.82360962 -140.18080139 227.08477783 C-140.19065513 224.76479168 -140.19072198 222.44500336 -140.1875 220.125 C-140.18689575 219.32588196 -140.1862915 218.52676392 -140.18566895 217.70343018 C-140.05673595 154.6630583 -123.01558182 95.59883838 -91.25 41.1875 C-90.71906738 40.27387695 -90.18813477 39.36025391 -89.64111328 38.41894531 C-75.16238399 14.09323269 -43.07207025 8.53344752 -17.16015625 1.7109375 C-15.62854658 1.32437171 -14.09602681 0.94138895 -12.5625 0.5625 C-11.87027344 0.38614014 -11.17804688 0.20978027 -10.46484375 0.02807617 C-6.68871075 -0.86095116 -3.68519979 -1.37123713 0 0 Z M-35.6875 131.1875 C-45.42636514 143.03206571 -49.31101956 155.8049452 -48 171 C-45.88033731 183.05642537 -40.08277093 192.24138054 -30.3125 199.5625 C-21.90126949 205.41749548 -12.48902089 207.23335663 -2.3125 205.4375 C7.13249633 202.83795973 15.68331417 196.55334233 20.69140625 188.16796875 C26.90717282 176.26065689 29.07170607 164.74374317 25.9375 151.375 C22.28848896 139.81411454 15.75416617 130.52124642 5.0625 124.6875 C-9.44863045 118.05790511 -23.55470135 121.31196621 -35.6875 131.1875 Z M92 136 C84.28060186 146.53681561 80.6365493 158.33401856 82.30859375 171.4140625 C84.61242489 184.58463696 91.19948889 195.08496867 102 203 C109.56757174 208.14109583 118.22426599 207.87404192 127 207 C133.5107298 205.41882276 138.86478526 202.24213391 144 198 C144 197.34 144 196.68 144 196 C144.66 196 145.32 196 146 196 C155.16111639 183.79253648 158.16220018 172.57462491 156.76171875 157.421875 C154.92194886 145.90008374 149.06361938 136.26014409 140 129 C137.42158056 127.32402736 134.87496974 126.07960482 132 125 C130.39125 124.38125 130.39125 124.38125 128.75 123.75 C113.83003489 120.76600698 102.12494681 124.64940173 92 136 Z " fill="#FDFDFD" transform="translate(195,100)"/>
<path d="M0 0 C2.37585628 2.16156336 3.73745443 4.15584309 5.0859375 7.0625 C5.45678467 7.85358154 5.82763184 8.64466309 6.2097168 9.4597168 C6.78653198 10.71715698 6.78653198 10.71715698 7.375 12 C7.97598511 13.29321167 7.97598511 13.29321167 8.58911133 14.61254883 C9.38045884 16.31801425 10.16903612 18.02476832 10.95458984 19.73291016 C11.7876628 21.53952284 12.63547596 23.33933647 13.48828125 25.13671875 C28.05381641 56.11813394 35.47793056 90.14004509 39 124 C39.08406601 124.71552536 39.16813202 125.43105072 39.25474548 126.16825867 C39.98882123 132.75377577 40.16089563 139.26381048 40.16796875 145.88671875 C40.17296135 147.5385894 40.17296135 147.5385894 40.17805481 149.22383118 C40.18308667 151.53569118 40.1854643 153.84755835 40.18530273 156.15942383 C40.18750018 159.68778353 40.2057257 163.21583562 40.22460938 166.74414062 C40.22754193 168.99999894 40.22952765 171.25585873 40.23046875 173.51171875 C40.23765427 174.55978195 40.24483978 175.60784515 40.25224304 176.68766785 C40.23516966 182.1718571 39.98130146 186.85709329 38 192 C35.875 193.9375 35.875 193.9375 34 195 C35 193 36 191 37 189 C37.11173801 187.09529844 37.15928542 185.1867026 37.17700195 183.27880859 C37.18983719 182.07509613 37.20267242 180.87138367 37.21589661 179.63119507 C37.22328354 178.31688507 37.23067047 177.00257507 37.23828125 175.6484375 C37.24235678 174.97414326 37.2464323 174.29984901 37.25063133 173.60512161 C37.27155127 170.01132769 37.28580708 166.41757219 37.29516602 162.82373047 C37.30389679 159.89707777 37.32444555 156.97092015 37.35668945 154.04443359 C37.54218771 136.8499971 36.85777823 120.54071209 33.449646 103.60679626 C32.80596038 99.87506667 32.49873259 96.13623913 32.21788025 92.36198425 C31.93928843 89.34184137 31.25799312 86.58602091 30.375 83.6875 C30.02695312 82.52605469 29.67890625 81.36460937 29.3203125 80.16796875 C28.30070801 76.91157643 27.24117644 73.66873382 26.1796875 70.42578125 C25.86209473 69.44843018 25.54450195 68.4710791 25.21728516 67.46411133 C24.58272335 65.51958461 23.93945059 63.57787444 23.28662109 61.6394043 C21.75219455 56.9587762 20.56694034 52.99684229 21 48 C20.34 48 19.68 48 19 48 C18.74605469 47.21496094 18.49210937 46.42992187 18.23046875 45.62109375 C16.37394447 39.95417508 14.44202986 34.43906651 12 29 C11.68933594 28.21753906 11.37867188 27.43507812 11.05859375 26.62890625 C10.00311363 24.00773237 8.86450909 21.44371691 7.6875 18.875 C7.254375 17.92496094 6.82125 16.97492188 6.375 15.99609375 C5.44285909 13.96497989 4.50517781 11.93640123 3.5625 9.91015625 C3.10875 8.92917969 2.655 7.94820312 2.1875 6.9375 C1.76855469 6.03902344 1.34960938 5.14054688 0.91796875 4.21484375 C0 2 0 2 0 0 Z " fill="#9E9E9E" transform="translate(405,159)"/>
<path d="M0 0 C4.75527719 -0.34583834 7.94997668 -0.2474978 12.25 1.875 C16.699534 4.05373734 20.92444243 4.84249355 25.8125 5.5078125 C28.35224391 5.89997884 30.79517124 6.38297179 33.296875 6.953125 C48.54791534 10.39762516 63.59967394 11.28193123 79.1875 11.25 C79.987323 11.24913391 80.787146 11.24826782 81.61120605 11.24737549 C96.24222842 12.37631201 96.24222842 12.37631201 109 9 C111.53049402 8.92686433 114.03304837 8.90752473 116.5625 8.9375 C117.27341797 8.94201172 117.98433594 8.94652344 118.71679688 8.95117188 C120.47790013 8.96299136 122.23896036 8.98092737 124 9 C120.7302225 10.87404514 117.77874239 11.51585866 114.0625 12.0625 C113.04285156 12.21847656 112.02320313 12.37445313 110.97265625 12.53515625 C100.25359312 13.78940258 89.60056867 14.19486067 78.8125 14.1875 C77.79527863 14.18709213 77.79527863 14.18709213 76.75750732 14.18667603 C66.03464715 14.16697589 55.59481555 13.65740679 45 12 C43.69804687 11.81695312 42.39609375 11.63390625 41.0546875 11.4453125 C31.90417931 10.06669652 23.00156653 7.80942498 14.0625 5.4375 C12.90556641 5.13239502 11.74863281 4.82729004 10.55664062 4.51293945 C9.47705078 4.21863037 8.39746094 3.92432129 7.28515625 3.62109375 C6.31457275 3.3573999 5.34398926 3.09370605 4.34399414 2.82202148 C2 2 2 2 0 0 Z " fill="#B0B0B0" transform="translate(172,352)"/>
<path d="M0 0 C2.37585628 2.16156336 3.73745443 4.15584309 5.0859375 7.0625 C5.45678467 7.85358154 5.82763184 8.64466309 6.2097168 9.4597168 C6.78653198 10.71715698 6.78653198 10.71715698 7.375 12 C7.97598511 13.29321167 7.97598511 13.29321167 8.58911133 14.61254883 C9.38045884 16.31801425 10.16903612 18.02476832 10.95458984 19.73291016 C11.7876628 21.53952284 12.63547596 23.33933647 13.48828125 25.13671875 C19.27174314 37.43834941 23.49036077 50.19896925 27.4375 63.1875 C27.80399658 64.37021484 28.17049316 65.55292969 28.5480957 66.77148438 C28.88156006 67.89232422 29.21502441 69.01316406 29.55859375 70.16796875 C29.86079834 71.17110107 30.16300293 72.1742334 30.47436523 73.20776367 C31.03164689 76.16811218 30.79614602 78.11878807 30 81 C29.67 81 29.34 81 29 81 C28.89042969 80.45472656 28.78085937 79.90945312 28.66796875 79.34765625 C27.31544504 72.91492151 25.3917766 66.81473313 23.140625 60.64453125 C21.58545926 56.26512583 20.63658031 52.72445595 21 48 C20.34 48 19.68 48 19 48 C18.74605469 47.21496094 18.49210937 46.42992187 18.23046875 45.62109375 C16.37394447 39.95417508 14.44202986 34.43906651 12 29 C11.68933594 28.21753906 11.37867188 27.43507812 11.05859375 26.62890625 C10.00311363 24.00773237 8.86450909 21.44371691 7.6875 18.875 C7.254375 17.92496094 6.82125 16.97492188 6.375 15.99609375 C5.44285909 13.96497989 4.50517781 11.93640123 3.5625 9.91015625 C3.10875 8.92917969 2.655 7.94820312 2.1875 6.9375 C1.76855469 6.03902344 1.34960938 5.14054688 0.91796875 4.21484375 C0 2 0 2 0 0 Z " fill="#B9B9B9" transform="translate(405,159)"/>
<path d="M0 0 C0.66 0 1.32 0 2 0 C2.01981934 1.01723145 2.03963867 2.03446289 2.06005859 3.08251953 C2.13723311 6.92583334 2.22575778 10.76882225 2.31738281 14.61181641 C2.35521811 16.26214088 2.39014187 17.91253519 2.421875 19.56298828 C2.6223955 29.87099512 3.23672635 39.82025449 5 50 C6.15048828 50.18755859 6.15048828 50.18755859 7.32421875 50.37890625 C10.70332697 51.163254 12.49727985 52.64029243 15 55 C15 55.66 15 56.32 15 57 C16.32 57.66 17.64 58.32 19 59 C14.97372182 59 12.65269963 57.11987423 9.4375 54.9375 C8.84775391 54.56689453 8.25800781 54.19628906 7.65039062 53.81445312 C4.54068816 51.70947819 3.07721207 50.19066654 1.66015625 46.69140625 C0.44808617 39.91385463 -0.14659904 33.43072525 -0.09765625 26.5625 C-0.0962413 25.79695801 -0.09482635 25.03141602 -0.09336853 24.24267578 C-0.08782853 21.82840858 -0.07528779 19.41423856 -0.0625 17 C-0.05747723 15.35026177 -0.05291569 13.70052206 -0.04882812 12.05078125 C-0.03787886 8.03381745 -0.02065666 4.01692513 0 0 Z " fill="#9D9D9D" transform="translate(55,302)"/>
<path d="M0 0 C0.66 0.33 1.32 0.66 2 1 C1.57589844 1.34289062 1.15179688 1.68578125 0.71484375 2.0390625 C-8.33967947 10.11848322 -13.31431463 22.05756209 -14.140625 34.0390625 C-14.26834215 39.38189671 -13.60826178 44.69943303 -13 50 C-13.99 49.67 -14.98 49.34 -16 49 C-18.29492833 36.74804391 -16.90792935 25.72378806 -13 14 C-12 13 -11 12 -10 11 C-9.401875 10.05125 -8.80375 9.1025 -8.1875 8.125 C-5.74777009 4.63967156 -3.34592934 2.58549085 0 0 Z " fill="#BDBDBD" transform="translate(292,229)"/>
<path d="M0 0 C0 0.66 0 1.32 0 2 C-5.24261319 2.29076223 -10.4855199 2.57525797 -15.72875977 2.85449219 C-17.50423871 2.94986717 -19.27963399 3.04681577 -21.05493164 3.14550781 C-30.25590269 3.65594946 -39.44341076 4.0923198 -48.66015625 4.125 C-49.37481552 4.12959229 -50.08947479 4.13418457 -50.82579041 4.13891602 C-55.75249525 4.12375237 -55.75249525 4.12375237 -58 3 C-57.67 2.34 -57.34 1.68 -57 1 C-56.34 1.33 -55.68 1.66 -55 2 C-52.99717057 1.93443118 -50.99659272 1.79600447 -49 1.625 C-47.09541016 1.47611328 -47.09541016 1.47611328 -45.15234375 1.32421875 C-44.47284668 1.27056152 -43.79334961 1.2169043 -43.09326172 1.16162109 C-28.72040378 0.05189028 -14.41243532 -0.12527525 0 0 Z " fill="#BEBEBE" transform="translate(262,117)"/>
<path d="M0 0 C-5.49876006 2.89408424 -11.37609685 5.01184582 -17.15478516 7.27587891 C-18.69290021 7.87948426 -20.22773458 8.49144114 -21.76171875 9.10546875 C-27.69200782 11.38634916 -33.74438893 13.10377448 -39.875 14.75 C-40.69645508 14.97308838 -41.51791016 15.19617676 -42.36425781 15.42602539 C-46.3219235 16.45932558 -49.87096704 17.30090119 -54 17 C-51.79558274 14.46933761 -50.2662569 13.56055591 -46.98046875 12.9375 C-46.20509766 12.78023438 -45.42972656 12.62296875 -44.63085938 12.4609375 C-43.82455078 12.30882812 -43.01824219 12.15671875 -42.1875 12 C-36.62833335 10.93595837 -32.02536574 9.73504418 -27 7 C-24.67451993 6.30643577 -22.34119555 5.63850788 -20 5 C-19.13375 4.62875 -18.2675 4.2575 -17.375 3.875 C-14.76634271 2.91391573 -12.75762929 2.84242118 -10 3 C-10 2.34 -10 1.68 -10 1 C-6.52674819 -0.1577506 -3.63932552 -0.06866652 0 0 Z " fill="#A6A6A6" transform="translate(350,344)"/>
<path d="M0 0 C1.32632446 0.30127808 1.32632446 0.30127808 2.67944336 0.60864258 C3.66235352 0.82713867 4.64526367 1.04563477 5.65795898 1.27075195 C6.68469727 1.51245117 7.71143555 1.75415039 8.76928711 2.00317383 C9.76895508 2.22553711 10.76862305 2.44790039 11.79858398 2.67700195 C18.18891243 4.12614076 24.45808723 5.84553409 30.70678711 7.81567383 C30.70678711 8.14567383 30.70678711 8.47567383 30.70678711 8.81567383 C23.07961333 8.10597958 15.65558833 6.73714424 8.14428711 5.25317383 C6.34507812 4.90222656 6.34507812 4.90222656 4.50952148 4.54418945 C1.57462921 3.97124236 -1.35957367 3.39499656 -4.29321289 2.81567383 C-4.57128784 3.71080688 -4.57128784 3.71080688 -4.85498047 4.62402344 C-6.20342316 8.83689178 -7.49262004 12.67965743 -9.98071289 16.37817383 C-10.41770508 17.03946289 -10.85469727 17.70075195 -11.30493164 18.38208008 C-11.63106445 18.85516602 -11.95719727 19.32825195 -12.29321289 19.81567383 C-12.62321289 19.15567383 -12.95321289 18.49567383 -13.29321289 17.81567383 C-12.12357431 15.07470262 -10.89532251 12.46432692 -9.54321289 9.81567383 C-9.00180664 8.7096582 -9.00180664 8.7096582 -8.44946289 7.58129883 C-8.09368164 6.87489258 -7.73790039 6.16848633 -7.37133789 5.44067383 C-6.88262207 4.47000977 -6.88262207 4.47000977 -6.3840332 3.47973633 C-4.66964847 0.8644171 -3.14691553 -0.25294594 0 0 Z " fill="#B8B8B8" transform="translate(309.293212890625,99.184326171875)"/>
<path d="M0 0 C0.33 0 0.66 0 1 0 C1.05429959 1.74965358 1.09292823 3.49979787 1.125 5.25 C1.14820312 6.22453125 1.17140625 7.1990625 1.1953125 8.203125 C0.99020566 11.14025496 0.31288568 12.42145474 -1 15 C-1.57854205 17.63236632 -2.07426349 20.21805663 -2.5 22.875 C-2.62745605 23.65149902 -2.75491211 24.42799805 -2.88623047 25.22802734 C-4.17426917 33.46140461 -4.8918395 41.7369368 -5.5703125 50.0390625 C-5.92738762 54.37928539 -6.42644643 58.6832547 -7 63 C-7.33 63 -7.66 63 -8 63 C-8.8525682 42.34890348 -5.68934573 19.85218509 0 0 Z " fill="#9E9E9E" transform="translate(64,237)"/>
<path d="M0 0 C0.2475 0.515625 0.495 1.03125 0.75 1.5625 C4.22960025 8.34772049 8.31785718 14.73720852 12.46484375 21.12695312 C14.92349561 24.99320175 16.76137067 28.5395427 18 33 C18.66386719 32.7834375 19.32773437 32.566875 20.01171875 32.34375 C20.89472656 32.0653125 21.77773438 31.786875 22.6875 31.5 C23.55761719 31.2215625 24.42773438 30.943125 25.32421875 30.65625 C27.99391677 30.00149195 30.26396684 29.88168505 33 30 C28.8413342 32.77244386 25.09202758 35.08389761 19.98046875 34.87890625 C16.20669342 33.76606294 15.54717869 32.62600927 13.625 29.25 C13.04492188 28.25871094 12.46484375 27.26742188 11.8671875 26.24609375 C11.25101562 25.17488281 10.63484375 24.10367187 10 23 C8.58587014 20.76922318 7.16919208 18.54005972 5.75 16.3125 C2.87741597 11.62712022 0.49814194 7.29343484 -1 2 C-0.67 1.34 -0.34 0.68 0 0 Z " fill="#9D9D9D" transform="translate(326,366)"/>
<path d="M0 0 C2.62987359 2.42757562 4.67083709 4.94269349 6.6875 7.875 C11.01760096 13.76569573 17.0873063 17.69576877 24 20 C26.13719734 20.28353306 28.28592482 20.4881507 30.4375 20.625 C31.52933594 20.69976562 32.62117188 20.77453125 33.74609375 20.8515625 C36.83644364 20.99253885 39.90698338 21.0279911 43 21 C40.16704079 23.83295921 37.5163781 23.94328992 33.59765625 24.08984375 C24.02027754 23.5143156 13.55010613 20.30472665 7 13 C6.443125 12.525625 5.88625 12.05125 5.3125 11.5625 C3.57473955 9.49373756 3.35654122 7.63840503 3 5 C2.01 4.67 1.02 4.34 0 4 C0 2.68 0 1.36 0 0 Z " fill="#BDBDBD" transform="translate(151,284)"/>
<path d="M0 0 C4.75527719 -0.34583834 7.94997668 -0.2474978 12.25 1.875 C16.78408416 4.09513776 21.10512365 4.85327281 26.078125 5.56640625 C28.67983294 5.95248858 31.19199651 6.45828193 33.75 7.0625 C37.81765948 8.00691088 41.84973362 8.54724367 46 9 C46 9.33 46 9.66 46 10 C37.70697392 11.60856109 31.07060143 9.92547925 23 7.75 C21.78054687 7.43675781 20.56109375 7.12351562 19.3046875 6.80078125 C12.77692852 5.10187205 6.36797332 3.22330103 0 1 C0 0.67 0 0.34 0 0 Z " fill="#B5B5B5" transform="translate(172,352)"/>
<path d="M0 0 C2.25 0.125 2.25 0.125 5 1 C7.1875 4 7.1875 4 9 7 C9.66 7.33 10.32 7.66 11 8 C12.11041609 10.19726898 13.10742266 12.36162936 14.0625 14.625 C14.58972656 15.83414063 15.11695313 17.04328125 15.66015625 18.2890625 C18.07503558 24.97750379 18.1359693 31.42400775 18.0625 38.4375 C18.05798828 39.26443359 18.05347656 40.09136719 18.04882812 40.94335938 C18.03715811 42.96227146 18.01922718 44.98114574 18 47 C17.01 47.495 17.01 47.495 16 48 C16.02320313 46.88882813 16.04640625 45.77765625 16.0703125 44.6328125 C16.28198378 30.59774305 15.53568879 17.68772755 5.828125 6.49609375 C4.42822748 5.10860667 3.00082263 3.74793508 1.5390625 2.42578125 C1.03117187 1.95527344 0.52328125 1.48476562 0 1 C0 0.67 0 0.34 0 0 Z " fill="#9A9A9A" transform="translate(335,229)"/>
<path d="M0 0 C0.33 0.66 0.66 1.32 1 2 C-0.97991748 6.47633518 -3.36788142 10.63655638 -5.84130859 14.85742188 C-6.35298584 15.73237305 -6.35298584 15.73237305 -6.875 16.625 C-7.22127441 17.21603516 -7.56754883 17.80707031 -7.92431641 18.41601562 C-11.03291042 23.83107926 -13.40315452 29.42582761 -15.67578125 35.234375 C-17 38 -17 38 -20 40 C-19.40400919 36.37328106 -18.41339459 33.44203158 -16.77734375 30.15625 C-16.32464111 29.24504395 -15.87193848 28.33383789 -15.40551758 27.39501953 C-14.92107178 26.43966309 -14.43662598 25.48430664 -13.9375 24.5 C-13.44596436 23.52272949 -12.95442871 22.54545898 -12.44799805 21.53857422 C-8.66454315 14.10443879 -4.58752923 6.96673493 0 0 Z " fill="#B7B7B7" transform="translate(105,140)"/>
<path d="M0 0 C5.19228855 0.57229633 9.3103703 3.0982161 13.8125 5.5625 C14.60076172 5.98724609 15.38902344 6.41199219 16.20117188 6.84960938 C18.1373378 7.89396554 20.07005367 8.9442077 22 10 C22 10.66 22 11.32 22 12 C22.90492187 12.25523437 22.90492187 12.25523437 23.828125 12.515625 C28.51063372 13.93548248 31.85311149 15.03218406 35 19 C30.29600478 17.58808107 26.10180576 15.60422627 21.8125 13.25 C21.16120117 12.89655518 20.50990234 12.54311035 19.83886719 12.17895508 C18.51936317 11.46241716 17.20082659 10.74409463 15.88330078 10.02392578 C14.15689808 9.08530342 12.42069194 8.16477112 10.68359375 7.24609375 C9.71550781 6.73175781 8.74742188 6.21742188 7.75 5.6875 C6.89921875 5.23761719 6.0484375 4.78773438 5.171875 4.32421875 C3.10819718 3.06596914 1.61344389 1.78631287 0 0 Z " fill="#BEBEBE" transform="translate(82,367)"/>
<path d="M0 0 C0 3.58069083 -0.89473036 4.71519036 -2.8125 7.6875 C-10.65643212 20.35989034 -11.36841772 33.49344146 -9 48 C-13.67235501 40.99146749 -12.83667142 31.13735639 -12 23 C-10.86707866 17.49628152 -8.99929157 12.24100005 -7 7 C-6.34 7 -5.68 7 -5 7 C-5 5.68 -5 4.36 -5 3 C-2.5 1.25 -2.5 1.25 0 0 Z " fill="#A2A2A2" transform="translate(158,231)"/>
<path d="M0 0 C0.99 0.33 1.98 0.66 3 1 C-5.55317581 6.77339367 -14.20359226 11.79795645 -23.50390625 16.2734375 C-26.93678667 17.89824481 -26.93678667 17.89824481 -29.77734375 19.7265625 C-32 21 -32 21 -35 21 C-35 20.34 -35 19.68 -35 19 C-34.16339844 18.5875 -33.32679688 18.175 -32.46484375 17.75 C-25.93696361 14.51136179 -19.43998693 11.2229993 -13 7.8125 C-12.39019287 7.49216797 -11.78038574 7.17183594 -11.15209961 6.84179688 C-8.20487414 5.27080707 -5.47983134 3.6317556 -2.75 1.69921875 C-1.8425 1.13847656 -0.935 0.57773437 0 0 Z " fill="#B8B8B8" transform="translate(422,363)"/>
<path d="M0 0 C4.10405073 0.34200423 7.04177143 0.88667344 10.625 2.9375 C16.0396571 5.79288558 21.88602425 7.05550951 28 7 C30.86037587 5.68577325 31.94472975 4.4663243 34 2 C32.69938949 5.90183154 31.52375615 8.74118196 28 11 C21.60830267 10.44756937 15.41355835 7.83996762 9.5 5.5 C8.69046875 5.19191406 7.8809375 4.88382812 7.046875 4.56640625 C6.27859375 4.26605469 5.5103125 3.96570313 4.71875 3.65625 C4.02716797 3.38619141 3.33558594 3.11613281 2.62304688 2.83789062 C1 2 1 2 0 0 Z " fill="#A5A5A5" transform="translate(127,390)"/>
<path d="M0 0 C1.65 0.66 3.3 1.32 5 2 C5.36116409 5.25047681 5.30929204 6.58761061 3.3125 9.25 C0.79937138 11.15182706 -0.89903219 11.65544802 -4 12 C-4 12.66 -4 13.32 -4 14 C-6.41032251 15.20216334 -8.82683479 16.38674978 -11.25 17.5625 C-11.93191406 17.90474609 -12.61382812 18.24699219 -13.31640625 18.59960938 C-17.02168909 20.38030356 -19.07871478 21.3058334 -23 20 C-21.625 19.3125 -20.25 18.625 -18.875 17.9375 C-17.52728516 17.25494141 -17.52728516 17.25494141 -16.15234375 16.55859375 C-13.86412659 15.42724475 -11.57572165 14.34214184 -9.25390625 13.28515625 C-8.62178223 12.98939697 -7.9896582 12.6936377 -7.33837891 12.38891602 C-5.5002957 11.52936542 -3.65455247 10.6862543 -1.80859375 9.84375 C1.17003213 8.26898547 1.17003213 8.26898547 2.02734375 5.46875 C2.22159461 2.74148667 2.22159461 2.74148667 0 0 Z " fill="#AAAAAA" transform="translate(351,345)"/>
<path d="M0 0 C1.83378114 2.75067172 2.39308396 4.06124483 3.03515625 7.16796875 C3.20466797 7.97943359 3.37417969 8.79089844 3.54882812 9.62695312 C3.8030957 10.89442383 3.8030957 10.89442383 4.0625 12.1875 C4.23587891 13.01314453 4.40925781 13.83878906 4.58789062 14.68945312 C6.15803174 22.32358753 7.13773245 29.67582568 7.0625 37.5 C7.05347656 38.7271875 7.04445313 39.954375 7.03515625 41.21875 C7.01775391 42.59546875 7.01775391 42.59546875 7 44 C6.67 44 6.34 44 6 44 C5.08419616 37.85242318 4.17595373 31.70927898 3.4921875 25.53125 C3.40952637 24.78738037 3.32686523 24.04351074 3.24169922 23.27709961 C3.08439417 21.83577227 2.93211012 20.39388515 2.78564453 18.95141602 C2.29380836 14.45224508 1.27574278 10.33330813 0 6 C-0.125 2.5625 -0.125 2.5625 0 0 Z " fill="#A9A9A9" transform="translate(435,236)"/>
<path d="M0 0 C0.33 0.99 0.66 1.98 1 3 C0.13375 2.731875 -0.7325 2.46375 -1.625 2.1875 C-5.33112587 1.98160412 -5.70984739 2.17846588 -8.375 4.4375 C-9.24125 5.283125 -10.1075 6.12875 -11 7 C-7.91730861 9.44413389 -4.71528889 11.33109524 -1.25 13.1875 C0.22726563 13.98220703 0.22726563 13.98220703 1.734375 14.79296875 C2.48203125 15.19128906 3.2296875 15.58960938 4 16 C0.68604014 17.08784335 0.16419665 17.07262544 -3.25 15.5625 C-4.1575 15.046875 -5.065 14.53125 -6 14 C-6 13.34 -6 12.68 -6 12 C-6.78375 11.87625 -7.5675 11.7525 -8.375 11.625 C-11 11 -11 11 -13 9 C-12.90954196 5.56259462 -12.21403378 4.23291911 -9.875 1.6875 C-6.35183346 -0.38044558 -4.01922848 -0.31523361 0 0 Z " fill="#AAAAAA" transform="translate(156,343)"/>
<path d="M0 0 C-8.79338203 4.58496242 -18.0057277 8.64932378 -28 9 C-27.67 8.34 -27.34 7.68 -27 7 C-24.68060793 6.2863409 -22.34476551 5.6252708 -20 5 C-19.13375 4.62875 -18.2675 4.2575 -17.375 3.875 C-14.76634271 2.91391573 -12.75762929 2.84242118 -10 3 C-10 2.34 -10 1.68 -10 1 C-6.52674819 -0.1577506 -3.63932552 -0.06866652 0 0 Z " fill="#B3B3B3" transform="translate(350,344)"/>
<path d="M0 0 C0.33 0 0.66 0 1 0 C1.66 4.62 2.32 9.24 3 14 C4.65 14.33 6.3 14.66 8 15 C10.8125 16.9375 10.8125 16.9375 13 19 C13 19.66 13 20.32 13 21 C14.32 21.66 15.64 22.32 17 23 C12.97372182 23 10.65269963 21.11987423 7.4375 18.9375 C6.84775391 18.56689453 6.25800781 18.19628906 5.65039062 17.81445312 C2.40524619 15.61779676 1.04105437 14.10257969 -0.42578125 10.4375 C-1.05489549 6.67137392 -0.76030314 3.72548537 0 0 Z " fill="#ABABAB" transform="translate(57,338)"/>
<path d="M0 0 C0.99 0.33 1.98 0.66 3 1 C5.02408755 0.90997602 7.04544287 0.75358962 9.0625 0.5625 C17.71394418 -0.1441101 26.32534979 -0.08851684 35 0 C35 0.33 35 0.66 35 1 C26.53087363 2.27663816 18.20034214 3.19488696 9.625 3.1875 C8.52877319 3.1884668 8.52877319 3.1884668 7.41040039 3.18945312 C2.27165871 3.13582935 2.27165871 3.13582935 0 2 C0 1.34 0 0.68 0 0 Z " fill="#B4B4B4" transform="translate(204,118)"/>
<path d="M0 0 C0.33 0 0.66 0 1 0 C0.54310245 6.96768763 -0.55782836 13.82433911 -4 20 C-6.49609375 21.68359375 -6.49609375 21.68359375 -9 23 C-10.36984198 24.29579647 -11.7151049 25.61992749 -13 27 C-13.66 26.67 -14.32 26.34 -15 26 C-14.56429687 25.63390625 -14.12859375 25.2678125 -13.6796875 24.890625 C-6.40930047 18.28118225 -2.1649209 9.52565197 0 0 Z " fill="#B4B4B4" transform="translate(221,272)"/>
<path d="M0 0 C0.66 0.99 1.32 1.98 2 3 C0.26053527 6.08938989 -1.49338405 9.17033488 -3.25 12.25 C-3.98669922 13.55904297 -3.98669922 13.55904297 -4.73828125 14.89453125 C-5.22167969 15.73886719 -5.70507812 16.58320313 -6.203125 17.453125 C-6.64301758 18.22817383 -7.08291016 19.00322266 -7.53613281 19.80175781 C-9.12343412 22.18535704 -10.91782636 24.04260081 -13 26 C-12.3723099 21.35509326 -12.3723099 21.35509326 -10.6484375 19.7109375 C-8.41235631 17.39007598 -7.31717981 14.84153194 -5.9375 11.9375 C-3.20833333 6.20833333 -3.20833333 6.20833333 -1 4 C-0.3574765 1.93125966 -0.3574765 1.93125966 0 0 Z " fill="#9F9F9F" transform="translate(174,366)"/>
<path d="M0 0 C2.75 0.0625 2.75 0.0625 6 1 C8.125 4.25 8.125 4.25 9.0625 6.15625 C10.36760398 8.72295449 12.16277261 10.79532714 14 13 C16.1519437 16.22791555 16.20086443 17.28400809 16 21 C13.64799832 17.98005827 11.66383082 14.83821155 9.6875 11.5625 C6.87660006 7.08300201 4.24189081 4.10382254 0 1 C0 0.67 0 0.34 0 0 Z " fill="#AFAFAF" transform="translate(204,227)"/>
<path d="M0 0 C0.49886719 0.27714844 0.99773437 0.55429687 1.51171875 0.83984375 C10.00028199 5.12222485 18.65704046 5.05602974 28 5 C25.12667102 7.87332898 22.43416439 7.96915776 18.45703125 8.0546875 C11.35061899 7.57182936 6.12243466 5.59908849 0 2 C0 1.34 0 0.68 0 0 Z " fill="#A8A8A8" transform="translate(166,300)"/>
<path d="M0 0 C0.33 0 0.66 0 1 0 C1.25 6.625 1.25 6.625 -1 10 C-1.84260166 13.10920013 -2.52479548 16.23738821 -3.21875 19.3828125 C-3.4765625 20.24648437 -3.734375 21.11015625 -4 22 C-4.66 22.33 -5.32 22.66 -6 23 C-5.50387003 14.89654389 -2.679915 7.59474067 0 0 Z " fill="#A8A8A8" transform="translate(71,214)"/>
<path d="M0 0 C5.35000149 4.90283719 9.16648596 12.03264666 11 19 C7.07329756 17.69109919 6.79342859 16.24192476 4.9375 12.625 C3.38462506 9.62988752 1.87343289 6.81014934 0 4 C0 2.68 0 1.36 0 0 Z " fill="#B7B7B7" transform="translate(394,139)"/>
<path d="M0 0 C0.99 0.33 1.98 0.66 3 1 C4.1875 4.0625 4.1875 4.0625 5 7 C5.66386719 6.7834375 6.32773437 6.566875 7.01171875 6.34375 C7.89472656 6.0653125 8.77773438 5.786875 9.6875 5.5 C10.55761719 5.2215625 11.42773438 4.943125 12.32421875 4.65625 C14.99391677 4.00149195 17.26396684 3.88168505 20 4 C15.76066508 6.82622328 11.99057429 8.96096913 6.8125 9.0625 C2.97328596 7.61213025 1.8891759 5.56036996 0 2 C0 1.34 0 0.68 0 0 Z " fill="#989898" transform="translate(339,392)"/>
<path d="M0 0 C0.66 0.33 1.32 0.66 2 1 C1.56429688 1.38929688 1.12859375 1.77859375 0.6796875 2.1796875 C-4.33523166 6.89067217 -7.69757723 11.98789701 -11 18 C-12 15 -12 15 -10.99609375 12.6953125 C-7.82836545 7.47133952 -4.98612138 3.56151527 0 0 Z " fill="#B1B1B1" transform="translate(292,229)"/>
<path d="M0 0 C3.87172658 0.49426297 7.63509466 1.11541265 11.4375 2 C15.61316804 2.96140811 19.74157758 3.53544483 24 4 C24 4.33 24 4.66 24 5 C14.93991742 6.43810835 8.08694827 5.56186825 0 1 C0 0.67 0 0.34 0 0 Z " fill="#C7C7C7" transform="translate(194,357)"/>
<path d="M0 0 C-6.28543527 3.43796251 -11.93463111 5.74646681 -19 7 C-16.06586855 3.80802063 -13.03091455 2.59846612 -9 1 C-8.113125 0.5875 -7.22625 0.175 -6.3125 -0.25 C-3.68033714 -1.10367444 -2.59084202 -0.7636166 0 0 Z " fill="#A7A7A7" transform="translate(378,389)"/>
<path d="M0 0 C0 3.60673886 -0.97385967 5.05612588 -2.8125 8.125 C-3.33457031 9.01445312 -3.85664063 9.90390625 -4.39453125 10.8203125 C-6 13 -6 13 -9 14 C-8.34 11.69 -7.68 9.38 -7 7 C-6.34 7 -5.68 7 -5 7 C-5 5.68 -5 4.36 -5 3 C-2.5 1.25 -2.5 1.25 0 0 Z " fill="#C7C7C7" transform="translate(158,231)"/>
<path d="M0 0 C0.33 0.66 0.66 1.32 1 2 C1.66 2 2.32 2 3 2 C3.5590711 3.91166247 4.09666462 5.82961576 4.625 7.75 C4.92664063 8.81734375 5.22828125 9.8846875 5.5390625 10.984375 C6.03345719 14.21888938 5.79570284 15.33874255 4 18 C3.87882812 17.40832031 3.75765625 16.81664062 3.6328125 16.20703125 C2.89903963 12.74700996 2.19141752 9.4785438 0.875 6.1875 C0 4 0 4 0 0 Z " fill="#C1C1C1" transform="translate(430,222)"/>
<path d="M0 0 C-2.78556882 1.36698387 -5.57931328 2.71634538 -8.375 4.0625 C-9.1690625 4.45244141 -9.963125 4.84238281 -10.78125 5.24414062 C-11.54179688 5.60830078 -12.30234375 5.97246094 -13.0859375 6.34765625 C-14.1385376 6.85824585 -14.1385376 6.85824585 -15.21240234 7.37915039 C-15.80230957 7.58403076 -16.3922168 7.78891113 -17 8 C-17.66 7.67 -18.32 7.34 -19 7 C-13.84952215 3.20491106 -6.43911085 -2.14637028 0 0 Z " fill="#B4B4B4" transform="translate(136,117)"/>
<path d="M0 0 C0 0.66 0 1.32 0 2 C-6.56654456 4.3030887 -12.03672362 5.33693273 -19 5 C-15.74358332 3.19523895 -12.54663205 2.26051195 -8.9375 1.375 C-7.37322266 0.98441406 -7.37322266 0.98441406 -5.77734375 0.5859375 C-3 0 -3 0 0 0 Z " fill="#A2A2A2" transform="translate(193,99)"/>
<path d="M0 0 C0.94875 0.86625 1.8975 1.7325 2.875 2.625 C7.21781379 6.37034249 12.02584651 9.17764329 17 12 C14 13 14 13 11.3125 12.0625 C6.92531753 9.33085808 3.31727315 5.96557272 0 2 C0 1.34 0 0.68 0 0 Z " fill="#A9A9A9" transform="translate(286,293)"/>
<path d="M0 0 C-0.33 0.66 -0.66 1.32 -1 2 C-3.8359375 2.88671875 -3.8359375 2.88671875 -7.375 3.6875 C-9.11910156 4.09548828 -9.11910156 4.09548828 -10.8984375 4.51171875 C-14 5 -14 5 -17 4 C-14.73291675 3.1344953 -12.46224921 2.28240685 -10.1875 1.4375 C-9.54490234 1.19064453 -8.90230469 0.94378906 -8.24023438 0.68945312 C-3.33984375 -1.11328125 -3.33984375 -1.11328125 0 0 Z " fill="#BBBBBB" transform="translate(153,111)"/>
<path d="M0 0 C0.66 0.33 1.32 0.66 2 1 C1.54177532 4.46941546 1.10868317 7.67395049 0 11 C-0.66 11 -1.32 11 -2 11 C-2.33 12.32 -2.66 13.64 -3 15 C-2.5547115 9.72684667 -1.91626837 4.98229776 0 0 Z " fill="#D4D4D4" transform="translate(279,243)"/>
<path d="M0 0 C6.98942918 -0.602537 6.98942918 -0.602537 9.8671875 1.11328125 C11.30861002 2.33745588 12.66278229 3.66278229 14 5 C10.62534314 5 8.46034008 4.18506921 5.3125 3 C4.31863281 2.62875 3.32476562 2.2575 2.30078125 1.875 C1.54152344 1.58625 0.78226562 1.2975 0 1 C0 0.67 0 0.34 0 0 Z " fill="#B8B8B8" transform="translate(321,223)"/>
<path d="M0 0 C2.9882675 2.58323124 4.49429547 5.55535237 6.25 9.0625 C7.06210937 10.65771484 7.06210937 10.65771484 7.890625 12.28515625 C8.25671875 13.18105469 8.6228125 14.07695312 9 15 C8.67 15.66 8.34 16.32 8 17 C3.98991145 12.70347656 0 6.07663952 0 0 Z " fill="#A6A6A6" transform="translate(405,159)"/>
<path d="M0 0 C3.63559661 3.43361902 6.36113346 6.7973607 9 11 C8.67 11.66 8.34 12.32 8 13 C4.87313562 10.91542375 4.05241831 9.71858763 2.3125 6.5 C1.87550781 5.7059375 1.43851562 4.911875 0.98828125 4.09375 C0 2 0 2 0 0 Z " fill="#BDBDBD" transform="translate(385,126)"/>
<path d="M0 0 C0.33 0 0.66 0 1 0 C1.66 4.62 2.32 9.24 3 14 C3.99 14.33 4.98 14.66 6 15 C4.35 14.67 2.7 14.34 1 14 C-0.79217969 8.83430559 -1.12029814 5.48946087 0 0 Z " fill="#C3C3C3" transform="translate(57,338)"/>
<path d="M0 0 C2.0625 0.4375 2.0625 0.4375 4 1 C2.39805929 1.98280415 0.79336258 2.96111717 -0.8125 3.9375 C-2.15248047 4.75541016 -2.15248047 4.75541016 -3.51953125 5.58984375 C-6 7 -6 7 -9 8 C-9 7.01 -9 6.02 -9 5 C-8.43410156 4.72285156 -7.86820313 4.44570312 -7.28515625 4.16015625 C-6.55167969 3.79792969 -5.81820312 3.43570313 -5.0625 3.0625 C-3.96615234 2.52302734 -3.96615234 2.52302734 -2.84765625 1.97265625 C-1.03750973 1.13628173 -1.03750973 1.13628173 0 0 Z " fill="#BCBCBC" transform="translate(168,223)"/>
<path d="M0 0 C7 8.44827586 7 8.44827586 7 12 C6.34 12 5.68 12 5 12 C3.7109375 10.390625 3.7109375 10.390625 2.375 8.25 C1.92898438 7.55390625 1.48296875 6.8578125 1.0234375 6.140625 C0 4 0 4 0 0 Z " fill="#AEAEAE" transform="translate(333,380)"/>
<path d="M0 0 C4.49797113 1.68673918 8.72886302 3.81673892 13 6 C9.68604014 7.08784335 9.16419665 7.07262544 5.75 5.5625 C4.8425 5.046875 3.935 4.53125 3 4 C3 3.34 3 2.68 3 2 C2.01 1.67 1.02 1.34 0 1 C0 0.67 0 0.34 0 0 Z " fill="#989898" transform="translate(147,353)"/>
<path d="M0 0 C0.99 0.33 1.98 0.66 3 1 C1.21475351 2.19713017 -0.5784028 3.38247279 -2.375 4.5625 C-3.87160156 5.55443359 -3.87160156 5.55443359 -5.3984375 6.56640625 C-6.25695312 7.03949219 -7.11546875 7.51257813 -8 8 C-8.66 7.67 -9.32 7.34 -10 7 C-8.4050992 5.80008401 -6.79873853 4.61538682 -5.1875 3.4375 C-3.84751953 2.44556641 -3.84751953 2.44556641 -2.48046875 1.43359375 C-1.66191406 0.96050781 -0.84335937 0.48742187 0 0 Z " fill="#B0B0B0" transform="translate(422,363)"/>
<path d="M0 0 C0.33 1.32 0.66 2.64 1 4 C0.360625 4.433125 -0.27875 4.86625 -0.9375 5.3125 C-3.26746003 6.91239177 -3.26746003 6.91239177 -4 10 C-4.99 10 -5.98 10 -7 10 C-7 9.34 -7 8.68 -7 8 C-6.34 8 -5.68 8 -5 8 C-4.731875 7.4225 -4.46375 6.845 -4.1875 6.25 C-2.98280141 3.9674132 -1.59201885 2.0262058 0 0 Z " fill="#AEAEAE" transform="translate(346,288)"/>
<path d="M0 0 C8.57142857 2 8.57142857 2 12 4 C8.87365774 5.04211409 7.95151159 4.99926113 4.875 4.25 C3.81925781 4.01023437 3.81925781 4.01023437 2.7421875 3.765625 C2.16726563 3.51296875 1.59234375 3.2603125 1 3 C0.67 2.01 0.34 1.02 0 0 Z " fill="#B8B8B8" transform="translate(362,115)"/>
<path d="M0 0 C-1 3 -1 3 -3.8125 4.75 C-7.13982105 6.05483179 -7.79584277 6.02866653 -11 5 C-9.54462432 4.16151196 -8.08559627 3.32936066 -6.625 2.5 C-5.81289063 2.0359375 -5.00078125 1.571875 -4.1640625 1.09375 C-2 0 -2 0 0 0 Z " fill="#BFBFBF" transform="translate(412,370)"/>
<path d="M0 0 C0.66 0.99 1.32 1.98 2 3 C0.35 5.97 -1.3 8.94 -3 12 C-3.66 12 -4.32 12 -5 12 C-3.25 6.25 -3.25 6.25 -1 4 C-0.3574765 1.93125966 -0.3574765 1.93125966 0 0 Z " fill="#898989" transform="translate(174,366)"/>
<path d="M0 0 C0.33 0.66 0.66 1.32 1 2 C0.00390625 3.9453125 0.00390625 3.9453125 -1.4375 6.125 C-1.91058594 6.84945312 -2.38367188 7.57390625 -2.87109375 8.3203125 C-3.24363281 8.87460938 -3.61617188 9.42890625 -4 10 C-5 7 -5 7 -3.6875 3.875 C-2 1 -2 1 0 0 Z " fill="#C6C6C6" transform="translate(90,170)"/>
<path d="M0 0 C3.31562557 0.55260426 6.15062207 1.16825705 9 3 C9.33 3.99 9.66 4.98 10 6 C5.56909529 4.79157144 3.01887244 3.48331435 0 0 Z " fill="#B6B6B6" transform="translate(82,367)"/>
<path d="M0 0 C-2.06756277 2.7972908 -3.14440371 3.02692273 -6.6875 3.6875 C-7.780625 3.790625 -8.87375 3.89375 -10 4 C-6.66064924 0.50886057 -4.84725717 -0.1275594 0 0 Z " fill="#989898" transform="translate(338,362)"/>
<path d="M0 0 C2.8125 0.125 2.8125 0.125 6 1 C7.875 4.0625 7.875 4.0625 9 7 C5.18315774 5.44499019 2.80804268 2.96404505 0 0 Z " fill="#BABABA" transform="translate(204,227)"/>
<path d="M0 0 C0.66 0.33 1.32 0.66 2 1 C0.625 2.5 0.625 2.5 -1 4 C-1.66 4 -2.32 4 -3 4 C-3.33 4.99 -3.66 5.98 -4 7 C-5.32 6.67 -6.64 6.34 -8 6 C-5.36 4.02 -2.72 2.04 0 0 Z " fill="#A4A4A4" transform="translate(337,298)"/>
<path d="M0 0 C3.68754757 0.49831724 5.60490662 1.10067643 8 4 C7.01 4.495 7.01 4.495 6 5 C3.98079663 3.69593116 1.98075027 2.36176581 0 1 C0 0.67 0 0.34 0 0 Z " fill="#B9B9B9" transform="translate(74,362)"/>
<path d="M0 0 C3.08089673 2.77280706 4.68775452 5.06326356 6 9 C5.01 8.34 4.02 7.68 3 7 C3 6.34 3 5.68 3 5 C2.01 4.67 1.02 4.34 0 4 C0 2.68 0 1.36 0 0 Z " fill="#9C9C9C" transform="translate(151,284)"/>
<path d="M0 0 C2.375 0.25 2.375 0.25 5 1 C6.3125 3.0625 6.3125 3.0625 7 5 C4.11424181 4.60196439 3.17810487 4.20990931 1.25 1.9375 C0.8375 1.298125 0.425 0.65875 0 0 Z " fill="#C3C3C3" transform="translate(335,229)"/>
</svg>
